<?xml version="1.0" encoding="utf-8"?>
<!-- Generator: Adobe Illustrator 16.0.0, SVG Export Plug-In . SVG Version: 6.00 Build 0)  -->
<!DOCTYPE svg PUBLIC "-//W3C//DTD SVG 1.1//EN" "http://www.w3.org/Graphics/SVG/1.1/DTD/svg11.dtd">
<svg version="1.1" id="Layer_1" xmlns="http://www.w3.org/2000/svg" xmlns:xlink="http://www.w3.org/1999/xlink" x="0px" y="0px"
	 width="773.196px" height="542.104px" viewBox="6.5 61.5 773.196 542.104" enable-background="new 6.5 61.5 773.196 542.104"
	 xml:space="preserve">
<path fill="#ED1C24" d="M688.253,419.021v-24.479c1.005-2.541,1.783-5.17,2.302-7.89c7.456-39.345-40.707-81.512-107.585-94.188
	c-66.869-12.676-127.134,8.931-134.592,48.276c-0.951,5.026-0.983,10.1-0.199,15.146c-3.596-0.354-7.282-0.567-11.064-0.567
	c-4.847,0-9.541,0.334-14.068,0.907c-0.75-32.104-45.871-57.993-101.457-57.993c-56.052,0-101.492,26.324-101.492,58.803
	c0,29.377,37.185,53.724,85.771,58.103v47.942c-16.829-1.71-30.939,2.602-37.615,13.175c-12.142,19.211,4.801,51.695,37.826,72.57
	c24.8,15.664,51.612,20.324,68.575,13.55c0.091,0.314,0.156,0.635,0.256,0.946c11.07,35,68.281,48.115,127.788,29.289
	c31.502-9.966,57.325-26.888,73.016-45.801c14.203,12.126,31.717,22.547,51.677,30.017c64.586,24.165,130.21,8.289,146.581-35.463
	C790.204,497.984,751.878,443.489,688.253,419.021z"/>
<path fill="#ED1C24" d="M76.486,256.242c4.155,9.349-7.309,23.523-25.601,31.651s-36.493,7.134-40.648-2.21
	c-4.155-9.344,7.308-23.519,25.601-31.651C54.13,245.904,72.331,246.897,76.486,256.242z"/>
<path fill="#ED1C24" d="M263.862,199.057c11.389,18.541-3.782,48.561-33.894,67.052c-30.104,18.491-63.741,18.449-75.126-0.087
	c-11.385-18.528,3.795-48.553,33.894-67.04C218.843,180.487,252.481,180.521,263.862,199.057z"/>
<path fill="#ED1C24" d="M189.847,94.811c-14.414,4.395-28.174,1.159-30.724-7.222c-2.558-8.38,7.061-18.729,21.47-23.13
	c14.418-4.387,28.175-1.159,30.729,7.221C213.876,80.066,204.262,90.416,189.847,94.811z"/>
<g>
	<path fill="#FFFFFF" d="M428.993,385.74c-10.657,0.952-14.716,2.086-14.716,17.056v84.118c0,14.585,3.894,16.293,14.716,17.053v3.6
		h-47.36v-3.6c13.197-0.76,15.396-3.603,15.396-19.139v-85.063h-0.339l-42.967,107.802h-2.367L309.23,404.121h-0.336v75.596
		c0,19.517,3.556,23.684,15.904,24.251v3.6h-39.754v-3.6c12.854-0.947,16.405-3.787,16.405-24.251v-76.921
		c0-14.776-3.551-16.293-16.069-17.055v-3.596h33.492l39.08,95.673l37.383-95.673h33.658V385.74L428.993,385.74z"/>
	<path fill="#FFFFFF" d="M435.846,464.894c-17.393-41.112,2.442-71.757,31.22-81.719c28.78-9.972,66.163,0.858,83.552,41.969
		c16.103,38.067,0.393,70.366-31.374,81.379C487.486,517.514,451.958,502.968,435.846,464.894z M530.53,431.897
		c-17.236-40.757-42.846-48.486-60.748-42.291c-17.893,6.198-31.258,27.421-14.013,68.186
		c16.645,39.327,41.275,49.036,60.752,42.286C536.007,493.333,547.176,471.221,530.53,431.897z"/>
	<path fill="#FFFFFF" d="M657.136,385.74c-8.114,0.571-10.486,3.225-15.561,17.626l-37.548,106.28h-2.542l-41.616-104.008
		c-6.935-17.246-9.975-19.519-17.928-19.898v-3.596h44.998v3.596c-9.476,0.571-12.688,0.952-12.688,7.016
		c0,2.84,3.042,10.61,6.933,20.271l25.544,64.034l24.867-69.526c0.335-1.138,3.217-9.096,3.217-13.077
		c0-7.764-5.923-8.333-12.354-8.716v-3.596h34.676L657.136,385.74L657.136,385.74z"/>
	<path fill="#FFFFFF" d="M665.504,503.964c14.381-0.382,16.413-3.602,16.413-17.052v-84.119c0-14.021-2.372-16.293-16.413-17.055
		v-3.596h50.245v3.596c-12.354,0.571-16.583,1.9-16.583,17.055v84.119c0,14.774,4.061,16.67,16.583,17.052v3.601h-50.245V503.964z"
		/>
</g>
<ellipse fill="#0072BC" cx="136.657" cy="344.045" rx="62.026" ry="33.833"/>
<path fill="#0072BC" d="M401.365,151.03c35.857,35.859,46.315,83.548,23.349,106.512c-22.96,22.96-70.651,12.506-106.512-23.361
	c-35.855-35.86-46.318-83.543-23.349-106.504C317.817,104.708,365.505,115.167,401.365,151.03z"/>
<path fill="#0072BC" d="M190.628,165.319c-7.305,17.68-21.558,28.572-31.838,24.327c-10.28-4.243-12.692-22.013-5.392-39.692
	c7.308-17.688,21.557-28.576,31.837-24.33C195.515,129.869,197.928,147.641,190.628,165.319z"/>
<path fill="#0072BC" d="M36.634,137.504c-14.762-3.038-25.294-12.461-23.523-21.044c1.767-8.583,15.164-13.069,29.921-10.032
	c14.762,3.045,25.294,12.465,23.523,21.048S51.392,140.546,36.634,137.504z"/>
</svg>
